<?xml version="1.0" encoding="UTF-8" standalone="no"?>
<!DOCTYPE svg PUBLIC "-//W3C//DTD SVG 1.1//EN" "http://www.w3.org/Graphics/SVG/1.1/DTD/svg11.dtd">
<svg xmlns="http://www.w3.org/2000/svg" xmlns:dc="http://purl.org/dc/elements/1.1/" version="1.1" xmlns:xl="http://www.w3.org/1999/xlink" viewBox="0 0 72.00004 72.00004" width="72.00004" height="72.00004">
  <defs/>
  <metadata> Produced by OmniGraffle 7.13.1 
    <dc:date>2020-03-02 00:11:33 +0000</dc:date>
  </metadata>
  <g id="Canvas_1" stroke="none" fill="none" fill-opacity="1" stroke-opacity="1" stroke-dasharray="none">
    <title>Canvas 1</title>
    <g id="Canvas_1: Layer 1">
      <title>Layer 1</title>
      <g id="Graphic_8">
        <path d="M 61.455834 10.544202 C 47.39697 -3.514734 24.603066 -3.514734 10.544202 10.544202 C -3.514734 24.603066 -3.514734 47.39697 10.544202 61.455834 C 24.603066 75.51477 47.39697 75.51477 61.455834 61.455834 C 75.51477 47.39697 75.51477 24.603066 61.455834 10.544202 M 24.363972 20.636064 C 27.878706 24.15078 27.878706 29.849256 24.363972 33.363972 C 20.849256 36.878706 15.15078 36.878706 11.636064 33.363972 C 8.12133 29.849256 8.12133 24.15078 11.636064 20.636064 C 15.15078 17.12133 20.849256 17.12133 24.363972 20.636064 M 60.36397 20.636064 C 63.878706 24.15078 63.878706 29.849256 60.36397 33.363972 C 56.849256 36.878706 51.15078 36.878706 47.636064 33.363972 C 44.12133 29.849256 44.12133 24.15078 47.636064 20.636064 C 51.15078 17.12133 56.849256 17.12133 60.36397 20.636064 M 18.000018 45.00002 L 54.00002 45.00002 C 54.00002 45.00002 54.00002 63.00002 36.00002 63.00002 C 18.000018 63.00002 18.000018 45.00002 18.000018 45.00002 Z" fill="#8080ff"/>
        <path d="M 61.455834 10.544202 C 47.39697 -3.514734 24.603066 -3.514734 10.544202 10.544202 C -3.514734 24.603066 -3.514734 47.39697 10.544202 61.455834 C 24.603066 75.51477 47.39697 75.51477 61.455834 61.455834 C 75.51477 47.39697 75.51477 24.603066 61.455834 10.544202 M 24.363972 20.636064 C 27.878706 24.15078 27.878706 29.849256 24.363972 33.363972 C 20.849256 36.878706 15.15078 36.878706 11.636064 33.363972 C 8.12133 29.849256 8.12133 24.15078 11.636064 20.636064 C 15.15078 17.12133 20.849256 17.12133 24.363972 20.636064 M 60.36397 20.636064 C 63.878706 24.15078 63.878706 29.849256 60.36397 33.363972 C 56.849256 36.878706 51.15078 36.878706 47.636064 33.363972 C 44.12133 29.849256 44.12133 24.15078 47.636064 20.636064 C 51.15078 17.12133 56.849256 17.12133 60.36397 20.636064 M 18.000018 45.00002 L 54.00002 45.00002 C 54.00002 45.00002 54.00002 63.00002 36.00002 63.00002 C 18.000018 63.00002 18.000018 45.00002 18.000018 45.00002 Z" stroke="#b9b9b9" stroke-linecap="round" stroke-linejoin="round" stroke-width="0"/>
      </g>
    </g>
  </g>
</svg>
