<svg height='100px' width='100px'  fill="#531B93" xmlns="http://www.w3.org/2000/svg" xmlns:xlink="http://www.w3.org/1999/xlink" version="1.1" x="0px" y="0px" viewBox="0 0 100 100" enable-background="new 0 0 100 100" xml:space="preserve"><path transform="translate(100, 0) scale(-1, 1)" d="M98.847,18.969L48.923,32.054c-1.213-3.355-2.994-10.92-4.325-14.228c-0.763-1.896-1.712-3.765-2.874-5.442  c-1.723-2.489-4.224-3.775-7.321-3.701c-7.134,0.171-9.198,5.836-9.29,6.114L2.469,14.696l23.803,4.006  c1.677,2.814,4.454,6.131,4.593,8.534c0.131,2.272-0.939,4.141-1.665,6.131c-2.354,6.459-2.355,12.905,0.235,19.271  c2.621,6.441,6.757,10.665,13.386,14.232c7.976,4.293,18.875,11.648,20.506,24.885c0.289-0.311,4.474-16.656-2.973-26.299  c-3.133-4.056-6.109-11.61-5.142-13.625C63.041,53.98,88.883,41.208,98.847,18.969z"></path></svg>